<svg xmlns="http://www.w3.org/2000/svg" viewBox="0 0 472 501" role="img" aria-label="Negocie Imobiliaria"><path fill="currentColor" fill-rule="evenodd" d="M1.00,426.50L1.50,426.50L2.00,427.50L3.50,427.50L4.00,428.50L6.50,428.50L7.00,429.50L9.50,429.50L10.00,430.50L12.50,430.50L13.00,431.50L15.50,431.50L16.00,432.50L18.50,432.50L19.00,433.50L21.50,433.50L22.00,434.50L24.50,434.50L25.00,435.50L27.50,435.50L28.00,436.50L32.50,436.50L33.00,437.50L35.50,437.50L36.00,438.50L39.50,438.50L40.00,439.50L63.50,439.50L64.00,438.50L73.50,438.50L74.00,437.50L85.50,437.50L86.00,436.50L96.50,436.50L97.00,435.50L103.50,435.50L104.00,434.50L107.50,434.50L108.00,433.50L112.50,433.50L113.00,432.50L115.50,432.50L116.00,431.50L119.50,431.50L120.00,430.50L121.50,430.50L122.00,429.50L125.50,429.50L126.00,428.50L128.50,428.50L129.00,427.50L131.50,427.50L132.00,426.50L133.50,426.50L134.00,425.50L137.50,425.50L138.00,424.50L139.50,424.50L140.00,423.50L142.50,423.50L144.00,421.50L145.50,421.50L146.00,420.50L147.50,420.50L148.00,419.50L150.50,419.50L151.00,418.50L152.50,418.50L153.00,417.50L154.50,417.50L155.00,416.50L156.50,416.50L157.00,415.50L159.50,415.50L160.00,414.50L161.50,414.50L162.00,413.50L163.50,413.50L164.00,412.50L165.50,412.50L167.00,410.50L168.50,410.50L169.00,409.50L170.50,409.50L171.00,408.50L172.50,408.50L173.00,407.50L175.50,407.50L175.50,406.00L176.00,405.50L178.50,405.50L180.00,403.50L181.50,403.50L182.00,402.50L183.50,402.50L185.00,400.50L186.50,400.50L187.00,399.50L188.50,399.50L190.00,397.50L191.50,397.50L193.00,395.50L194.50,395.50L196.00,393.50L197.50,393.50L198.00,392.50L199.50,392.50L199.50,392.00L200.50,391.50L200.50,391.00L201.50,390.50L203.00,388.50L204.50,388.50L205.00,387.50L206.50,387.50L208.00,385.50L209.50,385.50L209.50,385.00L210.50,384.50L212.00,382.50L213.50,382.50L214.00,381.50L215.50,381.50L215.50,381.00L216.50,380.50L217.50,379.00L217.00,379.00L215.50,377.00L214.00,377.00L213.50,376.00L211.50,374.50L211.50,374.00L210.00,374.00L208.50,372.00L207.00,372.00L206.50,371.00L205.00,371.00L204.50,370.00L202.50,368.50L202.50,368.00L201.00,368.00L199.50,366.00L198.00,366.00L197.50,365.00L196.00,365.00L194.50,363.00L193.00,363.00L191.50,361.00L190.00,361.00L189.50,360.00L187.00,360.00L185.50,358.00L183.00,358.00L182.50,357.00L181.00,357.00L180.50,356.00L179.00,356.00L178.50,355.00L177.00,355.00L176.50,354.00L175.00,354.00L174.50,353.00L172.00,353.00L171.50,352.00L170.00,352.00L169.50,351.00L168.00,351.00L167.50,350.00L165.00,350.00L164.50,349.00L163.00,349.00L162.50,348.00L159.00,348.00L158.50,347.00L156.00,347.00L155.50,346.00L154.00,346.00L153.50,345.00L150.00,345.00L149.50,344.00L148.00,344.00L147.50,343.00L145.00,343.00L144.50,342.00L140.00,342.00L139.50,341.00L137.00,341.00L136.50,340.00L132.00,340.00L131.50,339.00L128.00,339.00L127.50,338.00L122.00,338.00L121.50,337.00L118.00,337.00L117.50,336.00L111.00,336.00L110.50,335.00L102.00,335.00L101.50,334.00L91.00,334.00L90.50,333.00L52.00,333.00L51.50,334.00L39.00,334.00L38.50,335.00L31.00,335.00L30.50,336.00L24.00,336.00L23.50,337.00L17.00,337.00L16.50,338.00L12.00,338.00L11.50,339.00L8.00,339.00L7.50,340.00L5.00,340.00L4.50,341.00L1.00,341.00L1.00,341.50L0.00,342.00L0.00,410.50L1.00,411.00ZM429.50,327.00L428.00,327.00L427.50,326.00L416.00,326.00L415.50,325.00L395.00,325.00L394.50,326.00L378.00,326.00L377.50,327.00L373.00,327.00L372.50,328.00L363.00,328.00L362.50,329.00L358.00,329.00L357.50,330.00L351.00,330.00L350.50,331.00L347.00,331.00L346.50,332.00L342.00,332.00L341.50,333.00L339.00,333.00L338.50,334.00L334.00,334.00L333.50,335.00L330.00,335.00L329.50,336.00L327.00,336.00L326.50,337.00L323.00,337.00L322.50,338.00L319.00,338.00L318.50,339.00L316.00,339.00L315.50,340.00L311.00,340.00L310.50,341.00L309.00,341.00L308.50,342.00L306.00,342.00L305.50,343.00L303.00,343.00L302.50,344.00L300.00,344.00L299.50,345.00L298.00,345.00L297.50,346.00L295.00,346.00L294.50,347.00L293.00,347.00L292.50,348.00L290.00,348.00L289.50,349.00L288.00,349.00L287.50,350.00L286.00,350.00L285.50,351.00L284.00,351.00L283.50,352.00L281.00,352.00L279.50,354.00L278.00,354.00L277.50,355.00L276.00,355.00L274.50,357.00L272.00,357.00L270.50,359.00L269.00,359.00L268.50,360.00L267.00,360.00L265.50,362.00L264.00,362.00L263.50,363.00L262.00,363.00L260.50,365.00L259.00,365.00L258.50,366.00L257.00,366.00L257.00,366.50L256.00,367.00L254.50,369.00L253.00,369.00L252.50,370.00L251.00,370.00L249.50,372.00L248.00,372.00L248.00,372.50L247.00,373.00L247.00,373.50L246.00,374.00L244.50,376.00L242.00,376.00L242.00,376.50L241.00,377.00L239.50,379.00L238.00,379.00L238.00,379.50L237.00,380.00L235.50,382.00L234.00,382.00L233.50,383.00L232.00,383.00L232.00,383.50L231.00,384.00L229.50,386.00L228.00,386.00L228.00,386.50L227.00,387.00L225.50,389.00L224.00,389.00L223.50,390.00L222.00,390.00L222.00,390.50L221.00,391.00L219.50,393.00L218.00,393.00L216.50,395.00L215.00,395.00L213.50,397.00L212.00,397.00L210.50,399.00L209.00,399.00L207.50,401.00L206.00,401.00L205.50,402.00L204.00,402.00L204.00,402.50L203.00,403.00L201.50,405.00L200.00,405.00L198.50,407.00L197.00,407.00L195.50,409.00L194.00,409.00L193.50,410.00L192.00,410.00L191.50,411.00L190.00,411.00L188.50,413.00L187.00,413.00L185.50,415.00L184.00,415.00L183.50,416.00L182.00,416.00L181.50,417.00L180.00,417.00L179.50,418.00L178.00,418.00L178.00,418.50L177.00,419.00L175.50,421.00L174.00,421.00L173.50,422.00L171.00,422.00L170.50,423.00L169.00,423.00L168.50,424.00L167.00,424.00L166.50,425.00L165.00,425.00L164.50,426.00L163.00,426.00L162.50,427.00L161.00,427.00L160.50,428.00L159.00,428.00L158.50,429.00L157.00,429.00L156.50,430.00L154.00,430.00L153.50,431.00L152.00,431.00L151.50,432.00L150.00,432.00L149.50,433.00L148.00,433.00L147.50,434.00L145.00,434.00L144.50,435.00L143.00,435.00L142.50,436.00L140.00,436.00L139.50,437.00L138.00,437.00L137.50,438.00L135.00,438.00L134.50,439.00L132.00,439.00L131.50,440.00L129.00,440.00L128.50,441.00L126.00,441.00L125.50,442.00L123.00,442.00L122.50,443.00L120.00,443.00L119.50,444.00L115.00,444.00L114.50,445.00L112.00,445.00L111.50,446.00L105.00,446.00L104.50,447.00L100.00,447.00L99.50,448.00L92.00,448.00L91.50,449.00L84.00,449.00L83.50,450.00L77.00,450.00L77.00,450.50L78.50,450.50L79.00,451.50L81.50,451.50L82.00,452.50L85.50,452.50L86.00,453.50L88.50,453.50L89.00,454.50L91.50,454.50L92.00,455.50L95.50,455.50L96.00,456.50L99.50,456.50L100.00,457.50L101.50,457.50L102.00,458.50L105.50,458.50L106.00,459.50L108.50,459.50L109.00,460.50L112.50,460.50L113.00,461.50L115.50,461.50L116.00,462.50L118.50,462.50L119.00,463.50L122.50,463.50L123.00,464.50L124.50,464.50L125.00,465.50L128.50,465.50L129.00,466.50L132.50,466.50L133.00,467.50L136.50,467.50L137.00,468.50L139.50,468.50L140.00,469.50L142.50,469.50L143.00,470.50L145.50,470.50L146.00,471.50L149.50,471.50L150.00,472.50L152.50,472.50L153.00,473.50L155.50,473.50L156.00,474.50L158.50,474.50L159.00,475.50L162.50,475.50L163.00,476.50L166.50,476.50L167.00,477.50L175.50,477.50L176.00,476.50L182.50,476.50L183.00,475.50L186.50,475.50L187.00,474.50L190.50,474.50L191.00,473.50L193.50,473.50L194.00,472.50L196.50,472.50L197.00,471.50L199.50,471.50L200.00,470.50L201.50,470.50L202.00,469.50L203.50,469.50L204.00,468.50L206.50,468.50L207.00,467.50L208.50,467.50L209.00,466.50L210.50,466.50L211.00,465.50L213.50,465.50L215.00,463.50L217.50,463.50L218.00,462.50L219.50,462.50L220.00,461.50L221.50,461.50L222.00,460.50L223.50,460.50L224.00,459.50L225.50,459.50L226.00,458.50L228.50,458.50L229.00,457.50L230.50,457.50L231.00,456.50L232.50,456.50L234.00,454.50L235.50,454.50L236.00,453.50L237.50,453.50L238.00,452.50L239.50,452.50L240.00,451.50L241.50,451.50L243.00,449.50L244.50,449.50L245.00,448.50L246.50,448.50L247.00,447.50L249.50,447.50L251.00,445.50L252.50,445.50L254.00,443.50L255.50,443.50L256.00,442.50L257.50,442.50L258.00,441.50L259.50,441.50L261.00,439.50L262.50,439.50L263.00,438.50L264.50,438.50L265.00,437.50L266.50,437.50L267.00,436.50L268.50,436.50L269.00,435.50L270.50,435.50L272.00,433.50L273.50,433.50L275.00,431.50L276.50,431.50L277.00,430.50L278.50,430.50L280.00,428.50L281.50,428.50L282.00,427.50L283.50,427.50L285.00,425.50L286.50,425.50L287.00,424.50L288.50,424.50L289.00,423.50L290.50,423.50L292.00,421.50L293.50,421.50L295.00,419.50L296.50,419.50L298.00,417.50L299.50,417.50L301.00,415.50L303.50,415.50L305.00,413.50L306.50,413.50L308.00,411.50L309.50,411.50L311.00,409.50L312.50,409.50L314.00,407.50L315.50,407.50L317.00,405.50L318.50,405.50L319.00,404.50L320.50,404.50L322.00,402.50L323.50,402.50L324.00,401.50L325.50,401.50L327.00,399.50L328.50,399.50L329.00,398.50L330.50,398.50L332.00,396.50L333.50,396.50L334.00,395.50L336.50,395.50L337.00,394.50L338.50,394.50L339.00,393.50L340.50,393.50L341.00,392.50L342.50,392.50L343.00,391.50L344.50,391.50L345.00,390.50L346.50,390.50L347.00,389.50L349.50,389.50L350.00,388.50L352.50,388.50L353.00,387.50L355.50,387.50L356.00,386.50L357.50,386.50L358.00,385.50L361.50,385.50L362.00,384.50L364.50,384.50L365.00,383.50L369.50,383.50L370.00,382.50L373.50,382.50L374.00,381.50L378.50,381.50L379.00,380.50L383.50,380.50L384.00,379.50L388.50,379.50L389.00,378.50L396.50,378.50L397.00,377.50L411.50,377.50L412.00,376.50L430.50,376.50L430.50,376.00L429.50,375.50ZM429.50,241.00L428.00,241.00L427.50,240.00L388.00,240.00L387.50,241.00L374.00,241.00L373.50,242.00L364.00,242.00L363.50,243.00L355.00,243.00L354.50,244.00L348.00,244.00L347.50,245.00L344.00,245.00L343.50,246.00L336.00,246.00L335.50,247.00L331.00,247.00L330.50,248.00L326.00,248.00L325.50,249.00L321.00,249.00L320.50,250.00L316.00,250.00L315.50,251.00L314.00,251.00L313.50,252.00L311.00,252.00L310.50,253.00L307.00,253.00L306.50,254.00L303.00,254.00L302.50,255.00L300.00,255.00L299.50,256.00L297.00,256.00L296.50,257.00L294.00,257.00L293.50,258.00L290.00,258.00L289.50,259.00L288.00,259.00L287.50,260.00L286.00,260.00L285.50,261.00L283.00,261.00L282.50,262.00L280.00,262.00L279.50,263.00L278.00,263.00L277.50,264.00L275.00,264.00L274.50,265.00L273.00,265.00L272.50,266.00L271.00,266.00L270.50,267.00L269.00,267.00L268.50,268.00L267.00,268.00L266.50,269.00L265.00,269.00L264.50,270.00L262.00,270.00L260.50,272.00L259.00,272.00L258.50,273.00L257.00,273.00L256.50,274.00L255.00,274.00L253.50,276.00L252.00,276.00L251.50,277.00L250.00,277.00L248.50,279.00L247.00,279.00L246.50,280.00L245.00,280.00L245.00,280.50L244.00,281.00L244.00,281.50L243.00,282.00L241.50,284.00L240.00,284.00L239.50,285.00L238.00,285.00L238.00,285.50L237.00,286.00L235.50,288.00L234.00,288.00L234.00,288.50L233.00,289.00L233.00,289.50L232.00,290.00L231.00,291.50L231.50,291.50L232.00,292.50L233.50,292.50L235.00,294.50L236.50,294.50L237.00,295.50L238.50,295.50L240.00,297.50L241.50,297.50L243.00,299.50L244.50,299.50L246.00,301.50L248.50,301.50L249.00,302.50L251.00,304.00L251.00,304.50L252.50,304.50L253.00,305.50L255.00,307.00L255.00,307.50L257.50,307.50L258.00,308.50L258.50,308.50L259.00,309.50L259.50,309.50L260.00,310.50L262.00,312.00L262.00,312.50L263.50,312.50L264.00,313.50L266.00,315.00L266.00,315.50L267.50,315.50L268.00,316.50L268.50,316.50L269.00,317.50L269.50,317.50L270.00,318.50L270.50,318.50L271.00,319.50L273.00,321.00L273.00,321.50L274.50,321.50L275.00,322.50L275.50,322.50L276.00,323.50L278.00,325.00L278.00,325.50L279.50,325.50L280.00,326.50L280.50,326.50L281.00,327.50L281.50,327.50L282.00,328.50L282.50,328.50L283.00,329.50L283.50,329.50L284.00,330.50L284.50,330.50L285.00,331.50L285.50,331.50L286.00,332.50L286.50,332.50L287.00,333.50L289.00,335.00L289.00,335.50L292.50,335.50L293.00,334.50L295.50,334.50L296.00,333.50L297.50,333.50L298.00,332.50L300.50,332.50L301.00,331.50L304.50,331.50L305.00,330.50L307.50,330.50L308.00,329.50L309.50,329.50L310.00,328.50L312.50,328.50L313.00,327.50L316.50,327.50L317.00,326.50L319.50,326.50L320.00,325.50L323.50,325.50L324.00,324.50L326.50,324.50L327.00,323.50L331.50,323.50L332.00,322.50L335.50,322.50L336.00,321.50L340.50,321.50L341.00,320.50L345.50,320.50L346.00,319.50L351.50,319.50L352.00,318.50L356.50,318.50L357.00,317.50L364.50,317.50L365.00,316.50L370.50,316.50L371.00,315.50L380.50,315.50L381.00,314.50L397.50,314.50L398.00,313.50L398.50,313.50L399.00,314.50L407.50,314.50L408.00,313.50L414.50,313.50L415.00,314.50L429.50,314.50ZM238.00,109.00L237.50,110.00L236.00,110.00L236.00,110.50L235.00,111.00L235.00,111.50L234.00,112.00L234.00,112.50L233.00,113.00L233.00,113.50L232.00,114.00L232.00,114.50L231.00,115.00L231.00,115.50L230.00,116.00L230.00,116.50L229.00,117.00L229.00,117.50L228.00,118.00L228.00,118.50L227.00,119.00L227.00,119.50L226.00,120.00L226.00,120.50L225.00,121.00L225.00,121.50L224.00,122.00L224.00,122.50L223.00,123.00L223.00,123.50L222.00,124.00L222.00,124.50L221.00,125.00L221.00,125.50L220.00,126.00L220.00,126.50L219.00,127.00L219.00,127.50L218.00,128.00L218.00,128.50L217.00,129.00L217.00,129.50L216.00,130.00L216.00,130.50L215.00,131.00L215.00,131.50L214.00,132.00L214.00,132.50L213.00,133.00L213.00,133.50L212.00,134.00L212.00,134.50L211.00,135.00L211.00,135.50L210.00,136.00L210.00,136.50L209.00,137.00L209.00,137.50L208.00,138.00L208.00,138.50L207.00,139.00L207.00,139.50L206.00,140.00L206.00,140.50L205.00,141.00L205.00,141.50L204.00,142.00L204.00,142.50L203.00,143.00L203.00,143.50L202.00,144.00L202.00,144.50L201.00,145.00L201.00,145.50L200.00,146.00L200.00,146.50L199.00,147.00L199.00,147.50L198.00,148.00L196.50,150.00L196.00,150.00L196.00,151.50L195.00,152.00L193.50,154.00L192.00,154.00L192.00,154.50L191.00,155.00L191.00,155.50L190.00,156.00L190.00,156.50L189.00,157.00L189.00,157.50L188.00,158.00L186.50,160.00L186.00,160.00L186.00,161.50L185.50,162.00L184.00,162.00L184.00,162.50L183.00,163.00L183.00,163.50L182.00,164.00L182.00,164.50L181.00,165.00L181.00,165.50L180.00,166.00L180.00,166.50L179.00,167.00L179.00,167.50L178.00,168.00L177.00,169.50L177.50,169.50L178.00,170.50L178.50,170.50L179.00,171.50L179.50,171.50L180.00,172.50L182.00,174.00L182.00,175.50L183.50,175.50L184.00,176.00L184.00,177.50L185.50,177.50L186.00,178.00L186.00,179.50L187.50,179.50L188.00,180.50L188.50,180.50L189.00,181.50L189.50,181.50L190.00,182.50L192.00,184.00L192.00,185.50L193.50,185.50L194.00,186.50L194.50,186.50L195.00,187.50L195.50,187.50L196.00,188.50L198.00,190.00L198.00,191.50L199.50,191.50L200.00,192.50L200.50,192.50L201.00,193.50L201.50,193.50L202.00,194.50L202.50,194.50L203.00,195.50L203.50,195.50L204.00,196.50L204.50,196.50L205.00,197.50L205.50,197.50L206.00,198.50L208.00,200.00L208.00,201.50L209.50,201.50L210.00,202.50L210.50,202.50L211.00,203.50L211.50,203.50L212.00,204.50L212.50,204.50L213.00,205.50L213.50,205.50L214.00,206.50L214.50,206.50L215.00,207.50L215.50,207.50L216.00,208.50L216.50,208.50L217.00,209.50L217.50,209.50L218.00,210.50L218.50,210.50L219.00,211.50L219.50,211.50L220.00,212.50L222.00,214.00L222.00,215.50L223.50,215.50L224.00,216.50L224.50,216.50L225.00,217.50L225.50,217.50L226.00,218.50L228.00,220.00L228.00,221.50L229.50,221.50L230.00,222.00L230.00,223.50L231.50,223.50L232.00,224.00L232.00,225.50L233.50,225.50L234.00,226.50L234.50,226.50L235.00,227.50L235.50,227.50L236.00,228.50L236.50,228.50L237.00,229.50L238.50,230.50L238.50,230.00L239.50,229.50L239.50,229.00L240.50,228.50L240.50,228.00L241.50,227.50L241.50,227.00L242.50,226.50L242.50,226.00L243.50,225.50L243.50,225.00L244.50,224.50L244.50,224.00L245.50,223.50L245.50,223.00L246.50,222.50L246.50,222.00L247.50,221.50L247.50,221.00L248.50,220.50L248.50,220.00L249.50,219.50L249.50,219.00L250.50,218.50L250.50,218.00L251.50,217.50L251.50,217.00L252.50,216.50L252.50,216.00L253.50,215.50L253.50,215.00L254.50,214.50L254.50,214.00L255.50,213.50L255.50,213.00L256.50,212.50L256.50,212.00L257.50,211.50L257.50,211.00L258.50,210.50L258.50,210.00L259.50,209.50L259.50,209.00L260.50,208.50L260.50,208.00L261.50,207.50L261.50,207.00L262.50,206.50L262.50,206.00L263.50,205.50L263.50,205.00L264.50,204.50L264.50,204.00L265.50,203.50L265.50,203.00L266.50,202.50L266.50,202.00L267.50,201.50L267.50,201.00L268.50,200.50L268.50,200.00L269.50,199.50L269.50,199.00L270.50,198.50L270.50,198.00L271.50,197.50L271.50,197.00L272.50,196.50L272.50,196.00L273.50,195.50L273.50,195.00L274.50,194.50L274.50,194.00L275.50,193.50L275.50,193.00L276.50,192.50L276.50,192.00L277.50,191.50L277.50,191.00L278.50,190.50L278.50,190.00L279.50,189.50L279.50,189.00L280.50,188.50L280.50,188.00L281.50,187.50L281.50,187.00L282.50,186.50L282.50,186.00L283.50,185.50L283.50,185.00L284.50,184.50L284.50,184.00L285.50,183.50L285.50,183.00L286.50,182.50L286.50,182.00L287.50,181.50L287.50,181.00L288.50,180.50L288.50,180.00L289.50,179.50L289.50,179.00L290.50,178.50L290.50,178.00L291.50,177.50L291.50,177.00L292.50,176.50L292.50,176.00L293.50,175.50L293.50,175.00L294.50,174.50L294.50,174.00L295.50,173.50L295.50,173.00L296.50,172.50L298.00,170.50L298.50,170.50L298.50,169.00L298.00,169.00L297.50,168.00L297.00,168.00L296.50,167.00L296.00,167.00L295.50,166.00L295.00,166.00L294.50,165.00L294.00,165.00L293.50,164.00L293.00,164.00L292.50,163.00L292.00,163.00L291.50,162.00L291.00,162.00L290.50,161.00L290.00,161.00L289.50,160.00L289.00,160.00L288.50,159.00L288.00,159.00L287.50,158.00L287.00,158.00L286.50,157.00L286.00,157.00L285.50,156.00L285.00,156.00L284.50,155.00L284.00,155.00L283.50,154.00L283.00,154.00L282.50,153.00L282.00,153.00L281.50,152.00L281.00,152.00L280.50,151.00L280.00,151.00L279.50,150.00L279.00,150.00L278.50,149.00L278.00,149.00L277.50,148.00L277.00,148.00L276.50,147.00L276.00,147.00L275.50,146.00L275.00,146.00L274.50,145.00L274.00,145.00L273.50,144.00L273.00,144.00L272.50,143.00L272.00,143.00L271.50,142.00L271.00,142.00L270.50,141.00L270.00,141.00L269.50,140.00L269.00,140.00L268.50,139.00L268.00,139.00L267.50,138.00L267.00,138.00L266.50,137.00L266.00,137.00L265.50,136.00L265.00,136.00L264.50,135.00L264.00,135.00L263.50,134.00L263.00,134.00L262.50,133.00L262.00,133.00L261.50,132.00L261.00,132.00L260.50,131.00L260.00,131.00L259.50,130.00L259.00,130.00L258.50,129.00L258.00,129.00L257.50,128.00L257.00,128.00L256.50,127.00L256.00,127.00L255.50,126.00L255.00,126.00L254.50,125.00L254.00,125.00L253.50,124.00L253.00,124.00L252.50,123.00L252.00,123.00L251.50,122.00L251.00,122.00L250.50,121.00L250.00,121.00L249.50,120.00L249.00,120.00L248.50,119.00L248.00,119.00L247.50,118.00L247.00,118.00L246.50,117.00L246.00,117.00L245.50,116.00L245.00,116.00L244.50,115.00L244.00,115.00L243.50,114.00L243.00,114.00L242.50,113.00L242.00,113.00L241.50,112.00L241.00,112.00L240.50,111.00L240.00,111.00L239.50,110.00ZM201.50,175.50L201.50,174.00L202.00,173.50L274.50,173.50L275.00,174.00L275.00,174.50L273.00,176.00L273.00,177.50L272.00,178.00L272.00,178.50L271.00,179.00L271.00,179.50L270.00,180.00L268.50,182.00L267.00,182.00L267.00,182.50L266.00,183.00L266.00,183.50L265.00,184.00L265.00,184.50L264.00,185.00L264.00,185.50L263.00,186.00L263.00,186.50L262.00,187.00L262.00,187.50L261.00,188.00L261.00,188.50L260.00,189.00L260.00,189.50L259.00,190.00L259.00,190.50L258.00,191.00L258.00,191.50L257.00,192.00L257.00,192.50L256.00,193.00L256.00,193.50L255.00,194.00L255.00,194.50L254.00,195.00L254.00,195.50L253.00,196.00L251.50,198.00L250.00,198.00L250.00,198.50L248.00,200.00L248.00,201.50L247.00,202.00L245.50,204.00L244.00,204.00L244.00,204.50L243.00,205.00L243.00,206.50L242.50,207.00L241.00,207.00L241.00,207.50L240.00,208.00L238.50,210.00L238.00,210.00L237.50,209.00L236.00,209.00L235.50,208.00L235.00,208.00L234.50,207.00L234.00,207.00L233.50,206.00L233.00,206.00L232.50,205.00L232.00,205.00L231.50,204.00L231.00,204.00L230.50,203.00L230.00,203.00L229.50,202.00L229.00,202.00L228.50,201.00L228.00,201.00L227.50,200.00L227.00,200.00L226.50,199.00L226.00,199.00L225.50,198.00L225.00,198.00L224.50,197.00L224.00,197.00L223.50,196.00L223.00,196.00L222.50,195.00L222.00,195.00L221.50,194.00L219.50,192.50L219.50,192.00L218.00,192.00L217.50,191.00L215.50,189.50L215.50,188.00L214.00,188.00L213.50,187.00L213.00,187.00L212.50,186.00L212.00,186.00L211.50,185.00L211.00,185.00L210.50,184.00L210.00,184.00L209.50,183.00L207.50,181.50L207.50,180.00L206.00,180.00L205.50,179.00L205.00,179.00L204.50,178.00L204.00,178.00L203.50,177.00ZM201.50,164.00L202.50,163.50L202.50,162.00L203.50,161.50L205.00,159.50L206.50,159.50L206.50,159.00L207.50,158.50L207.50,158.00L208.50,157.50L208.50,157.00L209.50,156.50L209.50,156.00L210.50,155.50L210.50,155.00L211.50,154.50L211.50,154.00L212.50,153.50L212.50,153.00L213.50,152.50L213.50,152.00L214.50,151.50L214.50,151.00L215.50,150.50L215.50,150.00L216.50,149.50L216.50,149.00L217.50,148.50L217.50,148.00L218.50,147.50L218.50,147.00L219.50,146.50L219.50,146.00L220.50,145.50L220.50,145.00L221.50,144.50L221.50,144.00L222.50,143.50L222.50,143.00L223.50,142.50L223.50,142.00L224.50,141.50L224.50,141.00L225.50,140.50L225.50,140.00L226.50,139.50L228.00,137.50L229.50,137.50L229.50,137.00L230.50,136.50L230.50,136.00L231.50,135.50L233.00,133.50L233.50,133.50L233.50,132.00L234.00,131.50L235.50,131.50L237.00,129.50L239.50,129.50L240.00,130.50L240.50,130.50L241.00,131.50L241.50,131.50L242.00,132.50L242.50,132.50L243.00,133.50L243.50,133.50L244.00,134.50L244.50,134.50L245.00,135.50L245.50,135.50L246.00,136.50L246.50,136.50L247.00,137.50L247.50,137.50L248.00,138.50L248.50,138.50L249.00,139.50L249.50,139.50L250.00,140.50L250.50,140.50L251.00,141.50L251.50,141.50L252.00,142.50L252.50,142.50L253.00,143.50L253.50,143.50L254.00,144.50L254.50,144.50L255.00,145.50L255.50,145.50L256.00,146.50L258.00,148.00L258.00,148.50L259.50,148.50L260.00,149.50L261.00,150.00L261.00,151.50L261.50,151.50L263.00,153.50L264.50,153.50L265.00,154.50L265.50,154.50L266.00,155.50L266.50,155.50L267.00,156.50L267.50,156.50L268.00,157.50L268.50,157.50L269.00,158.50L269.50,158.50L270.00,159.50L270.50,159.50L271.00,160.50L271.50,160.50L272.00,161.50L274.00,163.00L274.00,165.50L273.50,166.00L202.00,166.00L201.50,165.50ZM237.00,0.00L236.50,1.00L235.00,1.00L235.00,1.50L234.00,2.00L232.50,4.00L231.00,4.00L229.50,6.00L228.00,6.00L228.00,7.50L227.50,8.00L226.00,8.00L225.50,9.00L224.00,9.00L224.00,9.50L223.00,10.00L223.00,10.50L222.00,11.00L220.50,13.00L219.00,13.00L219.00,13.50L218.00,14.00L216.50,16.00L215.00,16.00L214.50,17.00L213.00,17.00L213.00,17.50L212.00,18.00L212.00,18.50L211.00,19.00L209.50,21.00L208.00,21.00L208.00,21.50L207.00,22.00L205.50,24.00L204.00,24.00L204.00,24.50L203.00,25.00L203.00,25.50L202.00,26.00L202.00,26.50L201.00,27.00L199.50,29.00L198.00,29.00L197.50,30.00L196.00,30.00L196.00,30.50L195.00,31.00L195.00,31.50L194.00,32.00L192.50,34.00L191.00,34.00L191.00,34.50L190.00,35.00L190.00,35.50L189.00,36.00L187.50,38.00L186.00,38.00L184.50,40.00L183.00,40.00L183.00,40.50L182.00,41.00L182.00,41.50L181.00,42.00L179.50,44.00L178.00,44.00L176.50,46.00L175.00,46.00L175.00,46.50L174.00,47.00L174.00,47.50L173.00,48.00L171.50,50.00L170.00,50.00L168.50,52.00L167.00,52.00L167.00,52.50L166.00,53.00L166.00,53.50L165.00,54.00L163.50,56.00L162.00,56.00L162.00,56.50L161.00,57.00L159.50,59.00L158.00,59.00L158.00,59.50L157.00,60.00L155.50,62.00L154.00,62.00L154.00,62.50L153.00,63.00L151.50,65.00L150.00,65.00L150.00,65.50L149.00,66.00L149.00,66.50L148.00,67.00L146.50,69.00L145.00,69.00L145.00,69.50L144.00,70.00L142.50,72.00L141.00,72.00L139.50,74.00L138.00,74.00L138.00,74.50L137.00,75.00L137.00,75.50L136.00,76.00L134.50,78.00L133.00,78.00L133.00,78.50L132.00,79.00L130.50,81.00L129.00,81.00L127.50,83.00L126.00,83.00L126.00,83.50L125.00,84.00L123.50,86.00L122.00,86.00L122.00,86.50L121.00,87.00L121.00,87.50L120.00,88.00L118.50,90.00L117.00,90.00L115.50,92.00L114.00,92.00L114.00,92.50L113.00,93.00L113.00,93.50L112.00,94.00L110.50,96.00L109.00,96.00L107.50,98.00L106.00,98.00L106.00,98.50L105.00,99.00L105.00,99.50L104.00,100.00L102.50,102.00L101.00,102.00L99.50,104.00L98.00,104.00L98.00,104.50L97.00,105.00L97.00,105.50L96.00,106.00L94.50,108.00L93.00,108.00L91.50,110.00L90.00,110.00L90.00,110.50L89.00,111.00L87.50,113.00L86.00,113.00L86.00,113.50L85.00,114.00L85.00,114.50L84.00,115.00L84.00,115.50L83.00,116.00L81.50,118.00L80.00,118.00L78.50,120.00L77.00,120.00L77.00,120.50L76.00,121.00L76.00,121.50L75.00,122.00L73.50,124.00L72.00,124.00L72.00,124.50L71.00,125.00L69.50,127.00L68.00,127.00L66.50,129.00L65.00,129.00L65.00,129.50L64.00,130.00L62.50,132.00L61.00,132.00L61.00,132.50L60.00,133.00L60.00,133.50L59.00,134.00L57.50,136.00L56.00,136.00L56.00,136.50L55.00,137.00L53.50,139.00L52.00,139.00L50.50,141.00L49.00,141.00L49.00,141.50L48.00,142.00L48.00,142.50L47.00,143.00L45.50,145.00L44.00,145.00L44.00,145.50L43.00,146.00L41.50,148.00L40.00,148.00L40.00,148.50L39.00,149.00L37.50,151.00L36.00,151.00L34.50,153.00L33.00,153.00L33.00,153.50L32.00,154.00L30.50,156.00L29.00,156.00L29.00,156.50L28.00,157.00L28.00,157.50L27.00,158.00L25.50,160.00L24.00,160.00L24.00,160.50L23.00,161.00L23.00,161.50L22.00,162.00L20.50,164.00L19.00,164.00L17.50,166.00L16.00,166.00L16.00,166.50L15.00,167.00L13.50,169.00L12.00,169.00L12.00,169.50L11.00,170.00L9.50,172.00L8.00,172.00L8.00,172.50L7.00,173.00L5.50,175.00L4.00,175.00L4.00,175.50L3.00,176.00L3.00,176.50L2.00,177.00L0.50,179.00L0.00,179.00L0.00,182.50L1.00,183.00L1.00,183.50L0.00,184.00L0.00,328.50L1.50,329.50L2.00,328.50L5.50,328.50L6.00,327.50L11.50,327.50L12.00,326.50L15.50,326.50L16.00,325.50L21.50,325.50L22.00,324.50L29.50,324.50L30.00,323.50L38.50,323.50L39.00,322.50L47.50,322.50L48.00,321.50L97.50,321.50L98.00,322.50L106.50,322.50L107.00,323.50L116.50,323.50L117.00,324.50L122.50,324.50L123.00,325.50L127.50,325.50L128.00,326.50L132.50,326.50L133.00,327.50L137.50,327.50L138.00,328.50L140.50,328.50L141.00,329.50L144.50,329.50L145.00,330.50L148.50,330.50L149.00,331.50L152.50,331.50L153.00,332.50L155.50,332.50L156.00,333.50L159.50,333.50L160.00,334.50L161.50,334.50L162.00,335.50L164.50,335.50L165.00,336.50L166.50,336.50L167.00,337.50L169.50,337.50L170.00,338.50L171.50,338.50L172.00,339.50L174.50,339.50L175.00,340.50L176.50,340.50L177.00,341.50L179.50,341.50L180.00,342.50L181.50,342.50L182.00,343.50L183.50,343.50L184.00,344.50L185.50,344.50L186.00,345.50L187.50,345.50L188.00,346.50L189.50,346.50L190.00,347.50L191.50,347.50L192.00,348.50L193.50,348.50L194.00,349.50L195.50,349.50L197.00,351.50L198.50,351.50L199.00,352.50L200.50,352.50L201.00,353.50L202.50,353.50L204.00,355.50L205.50,355.50L206.00,356.50L208.00,358.00L208.00,358.50L209.50,358.50L210.00,359.50L211.50,359.50L213.00,361.50L214.50,361.50L216.00,363.50L217.50,363.50L218.00,364.50L220.00,366.00L220.00,366.50L221.50,366.50L222.00,367.50L224.00,369.00L224.00,369.50L225.50,369.50L227.00,371.50L230.50,371.50L230.50,371.00L231.50,370.50L231.50,370.00L232.50,369.50L234.00,367.50L235.50,367.50L237.00,365.50L238.50,365.50L240.00,363.50L241.50,363.50L242.00,362.50L243.50,362.50L245.00,360.50L246.50,360.50L248.00,358.50L249.50,358.50L249.50,358.00L250.50,357.50L252.00,355.50L254.50,355.50L256.00,353.50L257.50,353.50L258.00,352.50L259.50,352.50L261.00,350.50L262.50,350.50L264.00,348.50L265.50,348.50L266.00,347.50L267.50,347.50L269.00,345.50L270.50,345.50L271.00,344.50L272.50,344.50L273.00,343.50L275.50,343.50L277.00,341.50L278.50,341.50L278.50,341.00L277.50,340.50L277.50,339.00L277.00,339.00L276.50,338.00L274.50,336.50L274.50,336.00L273.00,336.00L272.50,335.00L272.00,335.00L271.50,334.00L271.00,334.00L270.50,333.00L270.00,333.00L269.50,332.00L269.00,332.00L268.50,331.00L268.00,331.00L267.50,330.00L265.50,328.50L265.50,328.00L264.00,328.00L263.50,327.00L263.00,327.00L262.50,326.00L260.50,324.50L260.50,324.00L259.00,324.00L258.50,323.00L256.50,321.50L256.50,321.00L255.00,321.00L254.50,320.00L253.00,320.00L252.50,319.00L252.00,319.00L251.50,318.00L249.50,316.50L249.50,316.00L248.00,316.00L247.50,315.00L246.00,315.00L245.50,314.00L243.50,312.50L243.50,312.00L242.00,312.00L241.50,311.00L239.50,309.50L239.50,309.00L238.00,309.00L237.50,308.00L236.00,308.00L234.50,306.00L233.00,306.00L232.50,305.00L231.00,305.00L230.50,304.00L229.00,304.00L227.50,302.00L226.00,302.00L225.50,301.00L224.00,301.00L223.50,300.00L222.00,300.00L221.50,299.00L220.00,299.00L218.50,297.00L217.00,297.00L216.50,296.00L214.00,296.00L212.50,294.00L211.00,294.00L210.50,293.00L209.00,293.00L208.50,292.00L207.00,292.00L206.50,291.00L204.00,291.00L202.50,289.00L200.00,289.00L199.50,288.00L198.00,288.00L197.50,287.00L196.00,287.00L195.50,286.00L193.00,286.00L192.50,285.00L191.00,285.00L190.50,284.00L188.00,284.00L187.50,283.00L186.00,283.00L185.50,282.00L183.00,282.00L182.50,281.00L181.00,281.00L180.50,280.00L177.00,280.00L175.50,278.00L172.00,278.00L171.50,277.00L169.00,277.00L168.50,276.00L165.00,276.00L164.50,275.00L163.00,275.00L162.50,274.00L160.00,274.00L159.50,273.00L155.00,273.00L154.50,272.00L152.00,272.00L151.50,271.00L148.00,271.00L147.50,270.00L144.00,270.00L143.50,269.00L138.00,269.00L137.50,268.00L133.00,268.00L132.50,267.00L126.00,267.00L125.50,266.00L120.00,266.00L119.50,265.00L113.00,265.00L112.50,264.00L101.00,264.00L100.50,263.00L87.00,263.00L86.50,262.00L67.00,262.00L66.50,263.00L49.00,263.00L48.50,264.00L38.00,264.00L37.50,263.50L37.50,197.00L38.50,196.50L38.50,195.00L39.00,194.50L40.50,194.50L40.50,194.00L41.50,193.50L41.50,193.00L42.50,192.50L44.00,190.50L45.50,190.50L45.50,190.00L46.50,189.50L48.00,187.50L49.50,187.50L51.00,185.50L52.50,185.50L54.00,183.50L55.50,183.50L55.50,183.00L56.50,182.50L56.50,182.00L57.50,181.50L57.50,181.00L58.50,180.50L60.00,178.50L61.50,178.50L62.00,177.50L63.50,177.50L63.50,177.00L64.50,176.50L64.50,176.00L65.50,175.50L67.00,173.50L68.50,173.50L68.50,173.00L69.50,172.50L71.00,170.50L72.50,170.50L72.50,170.00L73.50,169.50L73.50,169.00L74.50,168.50L76.00,166.50L77.50,166.50L79.00,164.50L80.50,164.50L82.00,162.50L83.50,162.50L83.50,162.00L84.50,161.50L86.00,159.50L87.50,159.50L87.50,159.00L88.50,158.50L88.50,158.00L89.50,157.50L91.00,155.50L92.50,155.50L94.00,153.50L95.50,153.50L95.50,152.00L96.00,151.50L97.50,151.50L97.50,151.00L98.50,150.50L100.00,148.50L101.50,148.50L103.00,146.50L104.50,146.50L104.50,146.00L105.50,145.50L107.00,143.50L108.50,143.50L108.50,143.00L109.50,142.50L111.00,140.50L112.50,140.50L112.50,140.00L113.50,139.50L115.00,137.50L116.50,137.50L118.00,135.50L119.50,135.50L119.50,135.00L120.50,134.50L120.50,134.00L121.50,133.50L123.00,131.50L124.50,131.50L124.50,131.00L125.50,130.50L127.00,128.50L128.50,128.50L128.50,128.00L129.50,127.50L131.00,125.50L132.50,125.50L132.50,125.00L133.50,124.50L135.00,122.50L136.50,122.50L136.50,122.00L137.50,121.50L137.50,121.00L138.50,120.50L140.00,118.50L141.50,118.50L142.00,117.50L143.50,117.50L143.50,117.00L144.50,116.50L146.00,114.50L147.50,114.50L147.50,114.00L148.50,113.50L150.00,111.50L151.50,111.50L151.50,111.00L152.50,110.50L152.50,110.00L153.50,109.50L155.00,107.50L156.50,107.50L156.50,107.00L157.50,106.50L157.50,106.00L158.50,105.50L160.00,103.50L161.50,103.50L163.00,101.50L164.50,101.50L166.00,99.50L167.50,99.50L167.50,98.00L168.00,97.50L169.50,97.50L169.50,97.00L170.50,96.50L172.00,94.50L173.50,94.50L174.00,93.50L175.50,93.50L175.50,93.00L176.50,92.50L178.00,90.50L179.50,90.50L179.50,90.00L180.50,89.50L180.50,89.00L181.50,88.50L183.00,86.50L184.50,86.50L184.50,86.00L185.50,85.50L187.00,83.50L188.50,83.50L190.00,81.50L191.50,81.50L191.50,81.00L192.50,80.50L192.50,80.00L193.50,79.50L195.00,77.50L196.50,77.50L196.50,77.00L197.50,76.50L199.00,74.50L200.50,74.50L200.50,74.00L201.50,73.50L201.50,73.00L202.50,72.50L204.00,70.50L205.50,70.50L207.00,68.50L208.50,68.50L210.00,66.50L211.50,66.50L211.50,66.00L212.50,65.50L214.00,63.50L215.50,63.50L215.50,63.00L216.50,62.50L218.00,60.50L219.50,60.50L219.50,60.00L220.50,59.50L222.00,57.50L223.50,57.50L223.50,56.00L224.00,55.50L225.50,55.50L227.00,53.50L228.50,53.50L228.50,53.00L229.50,52.50L231.00,50.50L232.50,50.50L232.50,50.00L233.50,49.50L235.00,47.50L236.50,47.50L237.00,46.50L239.50,46.50L240.00,47.50L242.00,49.00L242.00,49.50L243.50,49.50L244.00,50.50L246.00,52.00L246.00,52.50L247.50,52.50L248.00,53.50L250.00,55.00L250.00,55.50L251.50,55.50L253.00,57.50L254.50,57.50L255.00,58.50L255.50,58.50L256.00,59.50L258.00,61.00L258.00,61.50L259.50,61.50L260.00,62.50L262.00,64.00L262.00,64.50L263.50,64.50L265.00,66.50L266.50,66.50L267.00,67.50L267.50,67.50L268.00,68.50L268.50,68.50L269.00,69.50L271.00,71.00L271.00,71.50L272.50,71.50L273.00,72.50L274.50,72.50L275.00,73.50L275.50,73.50L276.00,74.50L276.50,74.50L277.00,75.50L279.00,77.00L279.00,77.50L280.50,77.50L281.00,78.50L282.50,78.50L283.00,79.50L283.50,79.50L284.00,80.50L286.00,82.00L286.00,82.50L287.50,82.50L288.00,83.50L289.50,83.50L290.00,84.50L290.50,84.50L291.00,85.50L293.00,87.00L293.00,87.50L294.50,87.50L295.00,88.50L297.00,90.00L297.00,90.50L298.50,90.50L299.00,91.50L299.50,91.50L300.00,92.50L302.00,94.00L302.00,94.50L303.50,94.50L305.00,96.50L306.50,96.50L307.00,97.50L309.00,99.00L309.00,99.50L310.50,99.50L311.00,100.50L313.00,102.00L313.00,102.50L314.50,102.50L316.00,104.50L317.50,104.50L318.00,105.50L318.50,105.50L319.00,106.50L321.00,108.00L321.00,108.50L322.50,108.50L323.00,109.50L323.50,109.50L324.00,110.50L326.00,112.00L326.00,112.50L327.50,112.50L329.00,114.50L330.50,114.50L331.00,115.50L333.00,117.00L333.00,117.50L334.50,117.50L335.00,118.50L337.00,120.00L337.00,120.50L338.50,120.50L339.00,121.50L339.50,121.50L340.00,122.50L342.00,124.00L342.00,124.50L343.50,124.50L344.00,125.50L345.50,125.50L346.00,126.50L346.50,126.50L347.00,127.50L349.00,129.00L349.00,129.50L350.50,129.50L352.00,131.50L353.50,131.50L354.00,132.50L354.50,132.50L355.00,133.50L357.00,135.00L357.00,135.50L358.50,135.50L360.00,137.50L361.50,137.50L362.00,138.50L364.00,140.00L364.00,140.50L365.50,140.50L366.00,141.50L368.00,143.00L368.00,143.50L369.50,143.50L370.00,144.50L370.50,144.50L371.00,145.50L373.00,147.00L373.00,147.50L374.50,147.50L376.00,149.50L377.50,149.50L379.00,151.50L380.50,151.50L381.00,152.50L381.50,152.50L382.00,153.50L384.00,155.00L384.00,155.50L385.50,155.50L386.00,156.50L386.50,156.50L387.00,157.50L389.00,159.00L389.00,159.50L390.50,159.50L391.00,160.50L392.50,160.50L393.00,161.50L393.50,161.50L394.00,162.50L396.00,164.00L396.00,164.50L397.50,164.50L398.00,165.50L400.00,167.00L400.00,167.50L401.50,167.50L402.00,168.50L404.00,170.00L404.00,170.50L405.50,170.50L406.00,171.50L408.00,173.00L408.00,173.50L409.50,173.50L411.00,175.50L412.50,175.50L413.00,176.50L415.00,178.00L415.00,178.50L416.50,178.50L418.00,180.50L419.50,180.50L420.00,181.50L420.50,181.50L421.00,182.50L421.50,182.50L422.00,183.50L424.00,185.00L424.00,185.50L425.50,185.50L427.00,187.50L428.50,187.50L430.00,189.50L431.50,189.50L432.00,190.50L432.50,190.50L433.00,191.50L435.00,193.00L435.00,193.50L436.50,193.50L437.00,194.50L438.00,195.00L438.00,197.50L439.00,198.00L439.00,199.50L438.00,200.00L438.00,387.50L437.00,388.00L436.50,389.00L409.00,389.00L408.50,390.00L394.00,390.00L393.50,391.00L390.00,391.00L389.50,392.00L382.00,392.00L381.50,393.00L378.00,393.00L377.50,394.00L374.00,394.00L373.50,395.00L369.00,395.00L368.50,396.00L366.00,396.00L365.50,397.00L363.00,397.00L362.50,398.00L360.00,398.00L359.50,399.00L358.00,399.00L357.50,400.00L354.00,400.00L353.50,401.00L352.00,401.00L351.50,402.00L349.00,402.00L348.50,403.00L347.00,403.00L346.50,404.00L345.00,404.00L344.50,405.00L343.00,405.00L342.50,406.00L341.00,406.00L340.50,407.00L339.00,407.00L338.50,408.00L336.00,408.00L334.50,410.00L333.00,410.00L332.50,411.00L331.00,411.00L329.50,413.00L328.00,413.00L327.50,414.00L326.00,414.00L325.50,415.00L324.00,415.00L324.00,415.50L323.00,416.00L321.50,418.00L320.00,418.00L319.50,419.00L318.00,419.00L317.50,420.00L316.00,420.00L314.50,422.00L313.00,422.00L311.50,424.00L310.00,424.00L308.50,426.00L307.00,426.00L305.50,428.00L304.00,428.00L303.50,429.00L302.00,429.00L300.50,431.00L299.00,431.00L297.50,433.00L296.00,433.00L295.50,434.00L294.00,434.00L293.50,435.00L292.00,435.00L290.50,437.00L289.00,437.00L288.50,438.00L287.00,438.00L285.50,440.00L284.00,440.00L282.50,442.00L281.00,442.00L280.50,443.00L279.00,443.00L278.50,444.00L277.00,444.00L275.50,446.00L274.00,446.00L273.50,447.00L272.00,447.00L271.50,448.00L270.00,448.00L268.50,450.00L267.00,450.00L265.50,452.00L264.00,452.00L263.50,453.00L262.00,453.00L261.50,454.00L260.00,454.00L259.50,455.00L258.00,455.00L257.50,456.00L256.00,456.00L254.50,458.00L253.00,458.00L252.50,459.00L251.00,459.00L250.50,460.00L249.00,460.00L247.50,462.00L245.00,462.00L243.50,464.00L242.00,464.00L241.50,465.00L240.00,465.00L239.50,466.00L238.00,466.00L237.50,467.00L236.00,467.00L235.50,468.00L234.00,468.00L233.50,469.00L232.00,469.00L231.50,470.00L230.00,470.00L228.50,472.00L226.00,472.00L225.50,473.00L224.00,473.00L223.50,474.00L222.00,474.00L221.50,475.00L220.00,475.00L219.50,476.00L217.00,476.00L216.50,477.00L215.00,477.00L214.50,478.00L213.00,478.00L212.50,479.00L211.00,479.00L210.50,480.00L208.00,480.00L207.50,481.00L206.00,481.00L205.50,482.00L204.00,482.00L203.50,483.00L201.00,483.00L200.50,484.00L198.00,484.00L197.50,485.00L195.00,485.00L194.00,486.00L194.00,486.50L195.50,486.50L196.00,487.50L197.50,487.50L198.00,488.50L201.50,488.50L202.00,489.50L204.50,489.50L205.00,490.50L207.50,490.50L208.00,491.50L211.50,491.50L212.00,492.50L213.50,492.50L214.00,493.50L217.50,493.50L218.00,494.50L219.50,494.50L220.00,495.50L223.50,495.50L224.00,496.50L226.50,496.50L227.00,497.50L229.50,497.50L230.00,498.50L232.50,498.50L233.00,499.50L235.50,499.50L236.00,500.50L240.50,500.50L241.00,499.50L244.50,499.50L245.00,498.50L247.50,498.50L248.00,497.50L251.50,497.50L252.00,496.50L255.50,496.50L256.00,495.50L258.50,495.50L259.00,494.50L260.50,494.50L261.00,493.50L264.50,493.50L265.00,492.50L267.50,492.50L268.00,491.50L270.50,491.50L271.00,490.50L273.50,490.50L274.00,489.50L276.50,489.50L277.00,488.50L280.50,488.50L281.00,487.50L283.50,487.50L284.00,486.50L287.50,486.50L288.00,485.50L290.50,485.50L291.00,484.50L293.50,484.50L294.00,483.50L296.50,483.50L297.00,482.50L299.50,482.50L300.00,481.50L303.50,481.50L304.00,480.50L306.50,480.50L307.00,479.50L309.50,479.50L310.00,478.50L312.50,478.50L313.00,477.50L316.50,477.50L317.00,476.50L319.50,476.50L320.00,475.50L323.50,475.50L324.00,474.50L325.50,474.50L326.00,473.50L329.50,473.50L330.00,472.50L331.50,472.50L332.00,471.50L335.50,471.50L336.00,470.50L338.50,470.50L339.00,469.50L341.50,469.50L342.00,468.50L344.50,468.50L345.00,467.50L348.50,467.50L349.00,466.50L352.50,466.50L353.00,465.50L355.50,465.50L356.00,464.50L358.50,464.50L359.00,463.50L362.50,463.50L363.00,462.50L364.50,462.50L365.00,461.50L368.50,461.50L369.00,460.50L371.50,460.50L372.00,459.50L374.50,459.50L375.00,458.50L377.50,458.50L378.00,457.50L380.50,457.50L381.00,456.50L383.50,456.50L384.00,455.50L388.50,455.50L389.00,454.50L391.50,454.50L392.00,453.50L393.50,453.50L394.00,452.50L397.50,452.50L398.00,451.50L400.50,451.50L401.00,450.50L403.50,450.50L404.00,449.50L407.50,449.50L408.00,448.50L409.50,448.50L410.00,447.50L413.50,447.50L414.00,446.50L417.50,446.50L418.00,445.50L421.50,445.50L422.00,444.50L423.50,444.50L424.00,443.50L426.50,443.50L427.00,442.50L429.50,442.50L430.00,441.50L432.50,441.50L433.00,440.50L436.50,440.50L437.00,439.50L439.50,439.50L440.00,438.50L441.50,438.50L442.00,437.50L445.50,437.50L446.00,436.50L449.50,436.50L450.00,435.50L453.50,435.50L454.00,434.50L456.50,434.50L457.00,433.50L459.50,433.50L460.00,432.50L462.50,432.50L463.00,431.50L465.50,431.50L466.00,430.50L468.50,430.50L469.00,429.50L470.50,429.50L470.50,429.00L471.50,428.50L471.50,175.00L470.00,175.00L469.50,174.00L468.00,174.00L467.50,173.00L467.00,173.00L466.50,172.00L466.00,172.00L465.50,171.00L465.00,171.00L464.50,170.00L462.50,168.50L462.50,168.00L461.00,168.00L460.50,167.00L460.00,167.00L459.50,166.00L457.50,164.50L457.50,164.00L456.00,164.00L454.50,162.00L453.00,162.00L451.50,160.00L450.00,160.00L449.50,159.00L447.50,157.50L447.50,157.00L446.00,157.00L445.50,156.00L445.00,156.00L444.50,155.00L442.50,153.50L442.50,153.00L441.00,153.00L440.50,152.00L438.50,150.50L438.50,150.00L437.00,150.00L435.50,148.00L434.00,148.00L433.50,147.00L433.00,147.00L432.50,146.00L430.50,144.50L430.50,144.00L429.00,144.00L427.50,142.00L426.00,142.00L425.50,141.00L423.50,139.50L423.50,139.00L422.00,139.00L421.50,138.00L421.00,138.00L420.50,137.00L420.00,137.00L419.50,136.00L417.50,134.50L417.50,134.00L416.00,134.00L414.50,132.00L413.00,132.00L412.50,131.00L412.00,131.00L411.50,130.00L409.50,128.50L409.50,128.00L408.00,128.00L406.50,126.00L405.00,126.00L404.50,125.00L402.50,123.50L402.50,123.00L401.00,123.00L400.50,122.00L398.50,120.50L398.50,120.00L397.00,120.00L395.50,118.00L394.00,118.00L393.50,117.00L393.00,117.00L392.50,116.00L390.50,114.50L390.50,114.00L389.00,114.00L387.50,112.00L386.00,112.00L385.50,111.00L385.00,111.00L384.50,110.00L382.50,108.50L382.50,108.00L381.00,108.00L380.50,107.00L378.50,105.50L378.50,105.00L377.00,105.00L376.50,104.00L374.50,102.50L374.50,102.00L373.00,102.00L371.50,100.00L370.00,100.00L369.50,99.00L367.50,97.50L367.50,97.00L366.00,97.00L365.50,96.00L365.00,96.00L364.50,95.00L362.50,93.50L362.50,93.00L361.00,93.00L359.50,91.00L358.00,91.00L357.50,90.00L355.50,88.50L355.50,88.00L354.00,88.00L353.50,87.00L353.00,87.00L352.50,86.00L350.50,84.50L350.50,84.00L349.00,84.00L348.50,83.00L348.00,83.00L347.50,82.00L345.50,80.50L345.50,80.00L344.00,80.00L342.50,78.00L341.00,78.00L339.50,76.00L338.00,76.00L337.50,75.00L337.00,75.00L336.50,74.00L334.50,72.50L334.50,72.00L333.00,72.00L331.50,70.00L330.00,70.00L329.50,69.00L329.00,69.00L328.50,68.00L326.50,66.50L326.50,66.00L325.00,66.00L324.50,65.00L322.50,63.50L322.50,63.00L321.00,63.00L319.50,61.00L318.00,61.00L317.50,60.00L317.00,60.00L316.50,59.00L314.50,57.50L314.50,57.00L313.00,57.00L312.50,56.00L310.50,54.50L310.50,54.00L309.00,54.00L308.50,53.00L306.50,51.50L306.50,51.00L305.00,51.00L303.50,49.00L302.00,49.00L301.50,48.00L299.50,46.50L299.50,46.00L298.00,46.00L297.50,45.00L295.50,43.50L295.50,43.00L294.00,43.00L293.50,42.00L291.50,40.50L291.50,40.00L290.00,40.00L289.50,39.00L287.50,37.50L287.50,37.00L286.00,37.00L285.50,36.00L285.00,36.00L284.50,35.00L284.00,35.00L283.50,34.00L281.50,32.50L281.50,32.00L280.00,32.00L278.50,30.00L277.00,30.00L275.50,28.00L274.00,28.00L273.50,27.00L273.00,27.00L272.50,26.00L270.50,24.50L270.50,24.00L269.00,24.00L267.50,22.00L266.00,22.00L265.50,21.00L265.00,21.00L264.50,20.00L262.50,18.50L262.50,18.00L261.00,18.00L259.50,16.00L258.00,16.00L257.50,15.00L255.50,13.50L255.50,13.00L254.00,13.00L253.50,12.00L253.00,12.00L252.50,11.00L250.50,9.50L250.50,9.00L249.00,9.00L247.50,7.00L246.00,7.00L245.50,6.00L243.50,4.50L243.50,4.00L242.00,4.00L241.50,3.00L239.50,1.50L239.50,1.00L238.00,1.00L237.50,0.00Z"/></svg>